<svg width="129" height="52" viewBox="0 0 129 52" fill="none" xmlns="http://www.w3.org/2000/svg">
<path fill-rule="evenodd" clip-rule="evenodd" d="M0.261141 32.5497C0.209013 35.3627 0.748375 37.4671 3.35502 38.9052C4.49643 39.8465 5.63258 40.7855 6.76546 41.7219L6.76861 41.7245L6.77389 41.7288C10.5305 44.8337 14.2513 47.909 18.009 50.9384C18.649 51.4544 19.61 51.835 20.4228 51.836C52.0942 51.8752 83.7657 51.8746 115.437 51.874L126.913 51.8738H128.433C128.442 51.8093 128.451 51.7523 128.459 51.7011L128.471 51.6233L128.476 51.5928C128.497 51.4635 128.511 51.377 128.511 51.2905C128.512 49.7678 128.512 48.2451 128.513 46.7224C128.517 36.7651 128.521 26.8078 128.478 16.8507C128.476 16.3031 128.049 15.6048 127.605 15.2346C122.004 10.5635 116.377 5.92276 110.711 1.33031C110.142 0.869762 109.277 0.545233 108.55 0.54446C73.94 0.507718 39.3302 0.510885 4.72035 0.514053L1.77165 0.514322C1.46488 0.514349 1.15811 0.534603 0.830602 0.556226C0.670926 0.566768 0.506322 0.577636 0.334385 0.586643L0.334386 2.29004C0.334386 5.05762 0.342939 7.82535 0.351492 10.5931C0.374112 17.9129 0.396732 25.2328 0.261141 32.5497ZM5.33352 17.2957C5.33274 15.6912 5.33195 14.0868 5.33195 12.4824L5.33194 5.45328H7.00433L18.5959 5.4531C47.9215 5.45238 77.2471 5.45167 106.573 5.49273C107.429 5.49393 108.442 5.88532 109.116 6.42645C113.716 10.1227 118.255 13.8949 122.778 17.6863C123.186 18.0286 123.569 18.6777 123.572 19.1863C123.612 26.963 123.608 34.7399 123.604 42.5168L123.602 44.5597V46.2756C123.602 46.3929 123.585 46.5102 123.564 46.6619C123.552 46.7448 123.539 46.838 123.526 46.947H122.078L111.233 46.9471H111.223C81.5559 46.9477 51.8887 46.9482 22.2215 46.9129C21.45 46.912 20.5317 46.5846 19.9314 46.1003C17.4622 44.1086 15.0155 42.0891 12.5688 40.0696C10.4638 38.3321 8.3588 36.5947 6.23948 34.8749C5.51448 34.2866 5.31104 33.6809 5.31505 32.7995C5.33859 27.6316 5.33605 22.4636 5.33352 17.2957ZM30.7545 30.803V22.1476C30.753 21.8855 30.7542 21.638 30.7554 21.4006V21.3996C30.7579 20.8999 30.7602 20.4446 30.7359 19.9907C30.446 14.5723 26.0671 10.3384 20.5984 10.1766C15.2698 10.0189 10.565 14.1165 10.0392 19.3728C9.47914 24.9713 13.0224 30.0864 18.4827 30.713C21.2432 31.0298 24.0489 30.9524 26.8937 30.8738C28.1729 30.8385 29.46 30.803 30.7545 30.803ZM19.4954 15.1911C22.0469 14.8059 24.2252 16.0465 25.3805 18.5428C25.6622 21.109 25.8255 23.4791 26.0138 26.2113C25.1542 26.1501 24.3161 26.1208 23.4979 26.0921C21.6977 26.029 19.9939 25.9693 18.3682 25.5817C15.9137 24.9963 14.6366 22.3583 14.9644 19.777C15.2513 17.5181 17.2094 15.5362 19.4954 15.1911ZM72.9113 29.0336V31.193C71.5753 31.1431 70.2438 31.1255 68.9185 31.1079C65.9426 31.0686 62.9982 31.0297 60.1047 30.6261C55.2088 29.9433 51.8411 24.983 52.1519 19.8265C52.4547 14.801 56.5261 10.6592 61.5861 10.229C66.7133 9.79315 71.4561 13.1182 72.5644 17.9888C72.7958 19.0059 72.8777 20.0729 72.8962 21.1193C72.9288 22.9588 72.9227 24.799 72.9164 26.69V26.6911V26.6934V26.6957V26.698C72.9139 27.467 72.9113 28.2444 72.9113 29.0336ZM65.854 16.2887C65.6682 16.1913 65.4853 16.0856 65.3023 15.9799C64.9052 15.7506 64.5081 15.5212 64.0823 15.3765C61.1741 14.3884 58.0436 16.2164 57.2204 19.3404C56.4724 22.1793 58.4256 25.496 61.3182 25.846C62.805 26.0259 64.3188 25.9822 65.8602 25.9377C66.5545 25.9176 67.2547 25.8974 67.9603 25.8974C67.9603 25.3909 67.9568 24.8866 67.9535 24.3838C67.9458 23.2502 67.9382 22.1247 67.9698 21.0002C68.0215 19.1586 67.4193 17.6256 65.854 16.2887ZM53.0783 10.5246H50.9307C50.7269 10.5246 50.5368 10.532 50.3568 10.539C49.9918 10.5532 49.6683 10.5658 49.3562 10.5118C47.9753 10.2732 47.3198 10.9014 46.8355 12.1604C46.2876 13.5846 45.6275 14.966 44.9676 16.347C44.7391 16.8252 44.5107 17.3033 44.2869 17.7831C43.6739 19.0975 43.0521 20.4078 42.399 21.7838L42.3968 21.7885L42.3924 21.7978C42.1 22.4139 41.8014 23.0432 41.4945 23.6919C41.3836 23.4811 41.288 23.3042 41.2039 23.1485C41.051 22.8656 40.9359 22.6526 40.8355 22.4329C40.3766 21.4297 39.9196 20.4257 39.4626 19.4217L39.4621 19.4205L39.4616 19.4194C38.2731 16.8084 37.0847 14.1974 35.8638 11.6017C35.6579 11.164 35.1466 10.607 34.739 10.5741C33.6436 10.4857 32.54 10.4996 31.3878 10.5141C30.9457 10.5196 30.4963 10.5253 30.0376 10.5253C30.0935 10.6743 30.1415 10.8085 30.1857 10.9321C30.2705 11.1695 30.3416 11.3682 30.429 11.5594C31.1781 13.1973 31.9394 14.83 32.7008 16.4627C34.5494 20.4269 36.3982 24.3916 38.0703 28.4289C38.9956 30.6628 40.1409 31.5565 42.4837 31.196C43.2216 31.0824 43.6559 30.9742 43.9855 30.2342C44.9734 28.0166 46.0003 25.8164 47.0272 23.6162C47.4781 22.6502 47.929 21.6842 48.3766 20.7167C49.4446 18.408 50.5093 16.0978 51.6028 13.7253L51.6041 13.7225C52.0889 12.6705 52.5794 11.6063 53.0783 10.5246ZM93.4917 11.8296V15.0868H86.1412V31.0802H81.1391V15.189H73.7815V10.2362H93.4231L93.4233 10.2413C93.4481 10.7679 93.4699 11.2325 93.4917 11.8296ZM96.2996 31.1562H98.5199H101.093V10.1543H96.2996V31.1562Z" fill="white"/>
</svg>
