<svg width="110" height="44" viewBox="0 0 110 44" fill="none" xmlns="http://www.w3.org/2000/svg">
<path fill-rule="evenodd" clip-rule="evenodd" d="M0.222565 27.5421C0.178115 29.9223 0.638036 31.7029 2.86075 32.9198C3.83405 33.7163 4.80286 34.5108 5.76888 35.3032L5.77157 35.3054L5.77607 35.309C8.97936 37.9362 12.1521 40.5384 15.3564 43.1017C15.9021 43.5384 16.7216 43.8604 17.4147 43.8612C44.4213 43.8944 71.428 43.8939 98.4344 43.8934L108.22 43.8932H109.516C109.524 43.8387 109.532 43.7904 109.538 43.7471L109.549 43.6813L109.553 43.6555C109.571 43.5461 109.583 43.4729 109.583 43.3997C109.584 42.1112 109.584 40.8228 109.585 39.5344C109.588 31.1089 109.591 22.6835 109.555 14.2583C109.553 13.7949 109.189 13.2041 108.81 12.8908C104.034 8.93836 99.236 5.01158 94.4045 1.12566C93.9193 0.735967 93.1817 0.461365 92.5618 0.460711C63.0495 0.429622 33.5372 0.432301 4.02499 0.434982L1.51059 0.43521C1.24901 0.435232 0.987421 0.45237 0.708152 0.470667C0.571994 0.479587 0.431634 0.488783 0.285021 0.496404L0.285022 1.93774C0.285022 4.27954 0.292315 6.62146 0.299608 8.96341C0.318897 15.1571 0.338185 21.3508 0.222565 27.5421ZM4.54785 14.6348C4.54718 13.2772 4.54651 11.9196 4.54651 10.562L4.5465 4.61433H5.97257L15.8568 4.61418C40.8632 4.61357 65.8695 4.61297 90.876 4.64771C91.6059 4.64872 92.4697 4.9799 93.0444 5.43778C96.9669 8.56538 100.837 11.7572 104.694 14.9653C105.042 15.255 105.369 15.8042 105.371 16.2346C105.405 22.8149 105.402 29.3953 105.399 35.9758L105.397 37.7044V39.1563C105.397 39.2555 105.382 39.3548 105.364 39.4832C105.354 39.5533 105.343 39.6322 105.332 39.7244H104.097L94.8496 39.7245H94.8411C69.5437 39.725 44.246 39.7254 18.9484 39.6955C18.2906 39.6948 17.5075 39.4178 16.9956 39.008C14.8901 37.3227 12.8038 35.6139 10.7174 33.9051C8.92249 32.4349 7.12754 30.9648 5.32037 29.5095C4.70215 29.0118 4.52868 28.4992 4.5321 27.7534C4.55217 23.3806 4.55 19.0077 4.54785 14.6348ZM26.2246 26.0641V18.7403C26.2234 18.5185 26.2244 18.3091 26.2254 18.1082V18.1074C26.2275 17.6845 26.2295 17.2993 26.2088 16.9152C25.9616 12.3304 22.2276 8.74789 17.5644 8.61098C13.0206 8.47755 9.00878 11.9447 8.56043 16.3924C8.08287 21.1296 11.1042 25.4577 15.7603 25.9879C18.1142 26.256 20.5067 26.1905 22.9325 26.124C24.0233 26.0941 25.1208 26.0641 26.2246 26.0641ZM16.6239 12.854C18.7996 12.5281 20.657 13.5778 21.6422 15.6901C21.8824 17.8615 22.0216 19.8669 22.1822 22.1788C21.4492 22.127 20.7345 22.1022 20.0368 22.0779C18.5018 22.0246 17.0489 21.974 15.6627 21.6461C13.5697 21.1507 12.4807 18.9186 12.7602 16.7344C13.0049 14.823 14.6746 13.146 16.6239 12.854ZM62.1723 24.5669V26.3941C61.0331 26.3519 59.8977 26.337 58.7676 26.3221C56.23 26.2888 53.7193 26.2559 51.2519 25.9144C47.0771 25.3367 44.2055 21.1395 44.4705 16.7763C44.7287 12.5239 48.2004 9.01934 52.5151 8.65532C56.8872 8.28653 60.9314 11.1 61.8765 15.2213C62.0738 16.0819 62.1436 16.9848 62.1594 17.8702C62.1872 19.4267 62.182 20.9838 62.1766 22.5839V22.5848V22.5867V22.5887V22.5906C62.1745 23.2413 62.1723 23.8991 62.1723 24.5669ZM56.1544 13.7828C55.996 13.7003 55.84 13.6109 55.684 13.5215C55.3454 13.3274 55.0068 13.1333 54.6437 13.0109C52.1638 12.1748 49.4944 13.7216 48.7925 16.365C48.1546 18.7671 49.8201 21.5736 52.2867 21.8697C53.5545 22.0219 54.8454 21.985 56.1597 21.9473C56.7518 21.9303 57.3488 21.9132 57.9505 21.9132C57.9505 21.4846 57.9475 21.0579 57.9447 20.6325C57.9381 19.6733 57.9317 18.7209 57.9586 17.7694C58.0027 16.2111 57.4892 14.914 56.1544 13.7828ZM45.2604 8.90544H43.4291C43.2554 8.90544 43.0933 8.91171 42.9398 8.91763C42.6285 8.92964 42.3527 8.94031 42.0865 8.89461C40.909 8.69272 40.3501 9.22428 39.9371 10.2896C39.4699 11.4947 38.907 12.6636 38.3443 13.8321C38.1495 14.2367 37.9547 14.6413 37.7639 15.0473C37.2412 16.1594 36.711 17.2682 36.1541 18.4325L36.1522 18.4364L36.1484 18.4443C35.8991 18.9656 35.6445 19.4981 35.3828 20.047C35.2882 19.8686 35.2067 19.719 35.135 19.5872C35.0046 19.3478 34.9065 19.1676 34.8208 18.9817C34.4295 18.1328 34.0398 17.2833 33.6501 16.4338L33.6497 16.4327L33.6493 16.4318C32.6358 14.2225 31.6225 12.0132 30.5814 9.81684C30.4058 9.44648 29.9698 8.97517 29.6223 8.94733C28.6882 8.87253 27.7472 8.88429 26.7647 8.89656C26.3877 8.90121 26.0045 8.90604 25.6133 8.90604C25.661 9.03211 25.7019 9.14567 25.7396 9.25025C25.8119 9.45113 25.8725 9.61926 25.9471 9.78104C26.5858 11.167 27.235 12.5485 27.8843 13.93C29.4606 17.2843 31.0371 20.6391 32.4629 24.0552C33.2519 25.9455 34.2285 26.7017 36.2263 26.3966C36.8555 26.3005 37.2258 26.209 37.5069 25.5828C38.3493 23.7064 39.2249 21.8447 40.1006 19.983C40.4851 19.1656 40.8696 18.3482 41.2512 17.5295C42.1619 15.576 43.0698 13.6212 44.0023 11.6137L44.0034 11.6114C44.4168 10.7212 44.835 9.82073 45.2604 8.90544ZM79.7215 10.0097V12.7658H73.4536V26.2986H69.1882V12.8522H62.9143V8.66141H79.663L79.6631 8.66573C79.6843 9.11131 79.7029 9.50444 79.7215 10.0097ZM82.1158 26.363H84.0091H86.2031V8.59211H82.1158V26.363Z" fill="black"/>
</svg>
